# This file uses centimeters as units for non-parametric coordinates.

mtllib WITCH_L_ARM.mtl
g default
v -0.021699 0.082387 -0.192642
v -0.023326 0.111899 -0.131451
v -0.024790 0.099890 -0.154467
v -0.012039 0.136341 -0.106366
v 0.014680 0.117714 -0.190331
v -0.018839 -0.052117 -0.380652
v 0.007051 -0.059686 -0.389847
v -0.007677 -0.108978 -0.433208
v -0.046901 -0.199786 -0.429579
v -0.020768 -0.151288 -0.156262
v -0.078508 -0.187765 -0.153411
v -0.097447 -0.077828 -0.130650
v -0.025009 0.118023 -0.103418
v 0.025750 -0.010651 -0.321248
v 0.017865 -0.038591 -0.358959
v 0.000119 -0.148098 -0.349429
v -0.026074 0.092296 0.020818
v -0.009743 0.142915 -0.091543
v -0.004486 0.151234 -0.082965
v -0.000466 0.157710 -0.071445
v 0.034843 0.128503 -0.185350
v 0.051244 0.067079 -0.234262
v 0.030159 -0.055615 -0.347620
v -0.075365 -0.154319 -0.092395
v 0.049938 0.129660 -0.184012
v -0.008360 0.144080 -0.094628
v 0.006038 0.090204 0.054194
v 0.025712 0.123249 0.048472
v 0.086434 0.090263 -0.169485
v 0.022248 0.176331 -0.009568
v 0.016630 0.172950 -0.015046
v 0.015699 0.174007 -0.023837
v 0.000275 0.159672 -0.048484
v 0.074845 0.171309 -0.001957
v 0.043707 0.174831 0.015732
v 0.026101 0.176333 -0.001287
v 0.049788 0.171583 0.019035
v -0.000041 0.159134 -0.059919
v 0.044113 0.191484 -0.078121
v 0.008193 0.168199 -0.037912
v 0.065089 0.129478 -0.177392
v 0.055979 0.093660 -0.212643
v 0.021029 0.037561 -0.273420
v 0.035490 0.017895 -0.284922
v 0.090242 0.165357 -0.104435
v -0.032954 0.003508 0.038389
v -0.043294 -0.026933 0.024610
v -0.029798 -0.118962 -0.060428
v -0.069052 -0.118671 -0.046654
v -0.060399 -0.083332 -0.013139
v -0.081863 -0.089684 -0.038019
v -0.017266 0.046513 0.050032
v -0.000585 0.079055 0.054121
v 0.079873 0.055988 -0.074214
v 0.035664 0.021356 0.011166
v 0.034902 0.092991 0.047023
v 0.042051 -0.030789 -0.080662
v -0.030345 0.082617 -0.171172
v -0.068360 -0.228329 -0.354585
v -0.033559 -0.172846 -0.447239
v -0.039993 -0.186669 -0.441095
v 0.000774 -0.080673 -0.412340
v -0.010708 0.101012 -0.185725
v -0.001300 0.107254 -0.190073
v -0.023898 0.092071 -0.172152
v -0.023037 -0.148963 -0.448186
v -0.059356 -0.091090 -0.367280
v -0.047807 -0.150676 -0.441215
v -0.056149 -0.214601 -0.405802
v -0.062179 -0.222429 -0.384252
v -0.080967 -0.062712 -0.237778
v -0.089700 -0.208432 -0.321193
v -0.078752 -0.217277 -0.234669
v -0.077324 -0.225735 -0.272833
v -0.057261 -0.222768 -0.328641
v -0.074342 -0.229797 -0.310610
v -0.095759 -0.189910 -0.194807
vt 0.400485 0.649275
vt 0.402521 0.685407
vt 0.389051 0.617635
vt 0.442154 0.843616
vt 0.453253 0.866082
vt 0.489268 0.891564
vt 0.452976 0.796311
vt 0.357420 0.272764
vt 0.385741 0.248831
vt 0.454445 0.262736
vt 0.457172 0.311140
vt 0.347115 0.157834
vt 0.458694 0.209827
vt 0.575621 0.087649
vt 0.606453 0.236216
vt 0.721956 0.146209
vt 0.834637 0.390377
vt 0.834826 0.227690
vt 0.909663 0.326646
vt 0.034373 0.432164
vt 0.142950 0.578003
vt 0.393682 0.724452
vt 0.419105 0.732814
vt 0.498051 0.584337
vt 0.456029 0.593065
vt 0.480806 0.590987
vt 0.423849 0.356976
vt 0.404355 0.294349
vt 0.516772 0.350366
vt 0.476178 0.365091
vt 0.493635 0.431229
vt 0.000925 0.487114
vt 0.009467 0.588672
vt 0.288113 0.875300
vt 0.419921 0.755549
vt 0.426089 0.772082
vt 0.515063 0.925588
vt 0.531819 0.940583
vt 0.501770 0.914139
vt 0.428798 0.791006
vt 0.425102 0.806442
vt 0.564610 0.902544
vt 0.435188 0.451786
vt 0.584572 0.679553
vt 0.510067 0.495978
vt 0.524300 0.595860
vt 0.486046 0.498990
vt 0.450021 0.417402
vt 0.959587 0.417252
vt 0.031238 0.671291
vt 0.515995 0.730178
vt 0.478879 0.765840
vt 0.501365 0.908349
vt 0.422789 0.752595
vt 0.269726 0.939060
vt 0.896545 0.872279
vt 0.325762 0.956826
vt 0.845249 0.909173
vt 0.592351 0.823131
vt 0.690206 0.995003
vt 0.644608 0.996018
vt 0.671852 0.999315
vt 0.423671 0.876245
vt 0.428616 0.865054
vt 0.601572 0.987038
vt 0.426430 0.841702
vt 0.420011 0.821530
vt 0.422639 0.934259
vt 0.721036 0.916650
vt 0.746738 0.959633
vt 0.421338 0.944916
vt 0.714043 0.990507
vt 0.424274 0.899848
vt 0.426757 0.887196
vt 0.753167 0.948617
vt 0.549889 0.959609
vt 0.571800 0.976801
vt 0.499840 0.747675
vt 0.531371 0.717741
vt 0.516673 0.579902
vt 0.524605 0.645579
vt 0.497124 0.532420
vt 0.728730 0.716850
vt 0.801862 0.605263
vt 0.928365 0.504491
vt 0.994073 0.682771
vt 0.979799 0.737481
vt 0.151200 0.857859
vt 0.207181 0.901865
vt 0.117230 0.821184
vt 0.073708 0.693253
vt 0.998199 0.575319
vt 0.987385 0.500642
vt 0.060325 0.737257
vt 0.252914 0.930431
vt 0.949751 0.810530
vt 0.860767 0.860145
vt 0.912425 0.857948
vt 0.873797 0.741776
vt 0.435378 0.596780
vt 0.462297 0.783050
vt 0.403684 0.589275
vt 0.073844 0.196677
vt 0.102107 0.159105
vt 0.662185 0.092475
vt 0.541850 0.097336
vt 0.514819 0.112093
vt 0.204579 0.096796
vt 0.249805 0.136205
vt 0.236741 0.097253
vt 0.274325 0.268907
vt 0.372455 0.206245
vt 0.422339 0.602295
vt 0.441215 0.825790
vt 0.433249 0.837020
vt 0.402880 0.615056
vt 0.282984 0.110796
vt 0.483864 0.144701
vt 0.170630 0.105621
vt 0.623593 0.086598
vt 0.128663 0.132597
vt 0.087058 0.259565
vt 0.227944 0.450096
vt 0.044168 0.255208
vt 0.025713 0.307601
vt 0.012118 0.362840
vt 0.799796 0.185320
vt 0.706549 0.108650
vt 0.758836 0.145992
vn -0.842829 0.479551 -0.244277
vn -0.900331 0.403851 -0.162197
vn -0.864632 0.474569 -0.164914
vn -0.716220 0.626796 -0.306847
vn -0.827405 0.516329 -0.220921
vn -0.827527 0.518781 -0.214629
vn -0.716220 0.626796 -0.306847
vn -0.787282 0.573707 -0.225937
vn -0.695566 0.652745 -0.300186
vn -0.687294 0.632230 -0.357648
vn -0.695566 0.652745 -0.300186
vn -0.492471 0.764225 -0.416452
vn -0.288840 0.715322 -0.636307
vn -0.038952 0.750794 -0.659387
vn -0.410444 0.719332 -0.560443
vn 0.934137 -0.034285 -0.355264
vn 0.264984 0.589393 -0.763151
vn 0.392952 0.615269 -0.683397
vn 0.264984 0.589393 -0.763151
vn 0.934137 -0.034285 -0.355264
vn 0.745004 0.156096 -0.648539
vn -0.059682 0.442241 -0.894908
vn 0.264984 0.589393 -0.763151
vn 0.745004 0.156096 -0.648539
vn 0.796323 -0.474353 -0.375312
vn 0.789172 -0.166495 -0.591175
vn 0.918318 -0.264890 -0.294152
vn 0.768431 -0.632820 -0.095143
vn 0.796323 -0.474353 -0.375312
vn 0.889953 -0.426312 -0.161994
vn -0.135068 -0.952944 0.271395
vn 0.409566 -0.858242 0.309317
vn -0.041166 -0.911273 0.409741
vn -0.900413 0.431256 -0.057219
vn -0.900331 0.403851 -0.162197
vn -0.932877 0.349953 -0.085289
vn -0.900331 0.403851 -0.162197
vn -0.872525 0.488010 -0.023382
vn -0.864632 0.474569 -0.164914
vn -0.817551 0.556279 -0.148876
vn -0.813369 0.549920 -0.189785
vn -0.872525 0.488010 -0.023382
vn -0.695566 0.652745 -0.300186
vn -0.748790 0.641692 -0.165967
vn -0.563028 0.785191 -0.257826
vn -0.061685 0.699981 -0.711492
vn -0.310575 0.713090 -0.628527
vn -0.192919 0.786171 -0.587127
vn -0.310575 0.713090 -0.628527
vn -0.061685 0.699981 -0.711492
vn -0.288840 0.715322 -0.636307
vn -0.038952 0.750794 -0.659387
vn -0.288840 0.715322 -0.636307
vn -0.061685 0.699981 -0.711492
vn 0.014318 0.771435 -0.636147
vn 0.475222 0.638829 -0.605030
vn 0.530858 0.616912 -0.581043
vn 0.615244 0.558203 -0.556672
vn 0.014318 0.771435 -0.636147
vn 0.530858 0.616912 -0.581043
vn 0.780873 0.391353 -0.486909
vn 0.615244 0.558203 -0.556672
vn 0.530858 0.616912 -0.581043
vn 0.614331 0.542137 -0.573310
vn 0.878672 0.240027 -0.412701
vn 0.741857 0.399949 -0.538227
vn 0.876295 -0.481712 -0.007739
vn 0.889953 -0.426312 -0.161994
vn 0.953604 -0.273014 -0.126894
vn 0.768431 -0.632820 -0.095143
vn 0.889953 -0.426312 -0.161994
vn 0.876295 -0.481712 -0.007739
vn -0.041166 -0.911273 0.409741
vn -0.776478 -0.453490 0.437525
vn -0.749589 -0.578793 0.321116
vn -0.990916 0.004818 0.134395
vn -0.960002 0.013661 0.279658
vn -0.976247 0.173522 0.129741
vn -0.900413 0.431256 -0.057219
vn -0.932877 0.349953 -0.085289
vn -0.894300 0.441493 0.072886
vn -0.862507 0.505113 -0.030706
vn -0.900413 0.431256 -0.057219
vn -0.847308 0.514836 0.130435
vn -0.748790 0.641692 -0.165967
vn -0.862507 0.505113 -0.030706
vn -0.738779 0.660379 -0.134556
vn -0.797113 0.602405 -0.041451
vn -0.868302 0.496022 0.003836
vn -0.818906 0.573644 -0.018022
vn -0.738779 0.660379 -0.134556
vn -0.718456 0.686042 -0.114751
vn -0.563028 0.785191 -0.257826
vn -0.563028 0.785191 -0.257826
vn -0.748790 0.641692 -0.165967
vn -0.738779 0.660379 -0.134556
vn 0.922647 0.055455 -0.381637
vn 0.685027 0.443960 -0.577614
vn 0.703323 0.387416 -0.596024
vn 0.703323 0.387416 -0.596024
vn 0.685027 0.443960 -0.577614
vn 0.400898 0.572599 -0.715130
vn 0.748277 0.388391 -0.537805
vn 0.685027 0.443960 -0.577614
vn 0.922647 0.055455 -0.381637
vn 0.926303 -0.375596 -0.029828
vn 0.953604 -0.273014 -0.126894
vn 0.944966 -0.325124 -0.036516
vn 0.366401 -0.836009 0.408460
vn 0.703214 -0.652703 0.281902
vn 0.537181 -0.694504 0.478644
vn -0.800525 -0.321611 0.505694
vn -0.776478 -0.453490 0.437525
vn -0.274169 -0.668296 0.691529
vn -0.885420 -0.378100 0.270318
vn -0.776478 -0.453490 0.437525
vn -0.800525 -0.321611 0.505694
vn 0.619252 0.521242 -0.587225
vn 0.748277 0.388391 -0.537805
vn 0.639228 0.542727 -0.544826
vn 0.619252 0.521242 -0.587225
vn 0.639228 0.542727 -0.544826
vn 0.475222 0.638829 -0.605030
vn -0.809530 0.572649 -0.129364
vn -0.808270 0.569426 -0.149846
vn -0.872525 0.488010 -0.023382
vn -0.809530 0.572649 -0.129364
vn -0.872525 0.488010 -0.023382
vn -0.862507 0.505113 -0.030706
vn -0.523580 0.318606 0.790161
vn 0.141914 -0.024727 0.989570
vn -0.547683 0.368270 0.751279
vn -0.547683 0.368270 0.751279
vn 0.230677 -0.079624 0.969767
vn 0.220788 0.043956 0.974331
vn -0.158673 0.316749 0.935143
vn -0.428536 0.499332 0.753010
vn -0.547683 0.368270 0.751279
vn 0.230677 -0.079624 0.969767
vn 0.656802 -0.189936 0.729750
vn 0.220788 0.043956 0.974331
vn 0.943953 -0.121435 0.306931
vn 0.854570 0.050575 0.516867
vn 0.808440 -0.212978 0.548695
vn -0.035479 0.998891 0.030945
vn 0.175852 0.862244 0.474985
vn 0.719170 0.644617 0.259352
vn -0.419997 0.904675 0.071869
vn -0.469837 0.855902 0.216068
vn 0.175852 0.862244 0.474985
vn -0.579603 0.812912 0.056871
vn -0.469837 0.855902 0.216068
vn -0.419997 0.904675 0.071869
vn -0.579603 0.812912 0.056871
vn -0.596298 0.789042 0.147786
vn -0.469837 0.855902 0.216068
vn -0.777611 0.549659 0.305280
vn -0.793176 0.563259 0.231541
vn -0.847308 0.514836 0.130435
vn -0.726815 0.676242 0.120151
vn -0.765449 0.640169 0.065359
vn -0.793176 0.563259 0.231541
vn -0.793176 0.563259 0.231541
vn -0.765449 0.640169 0.065359
vn -0.784202 0.618413 0.050930
vn -0.793176 0.563259 0.231541
vn -0.784202 0.618413 0.050930
vn -0.847308 0.514836 0.130435
vn 0.191807 0.319011 0.928139
vn 0.011482 0.567611 0.823217
vn -0.428536 0.499332 0.753010
vn 0.191807 0.319011 0.928139
vn 0.663070 0.095244 0.742473
vn 0.011482 0.567611 0.823217
vn 0.589854 0.399218 0.701924
vn 0.663070 0.095244 0.742473
vn 0.854570 0.050575 0.516867
vn 0.969888 0.130674 0.205529
vn 0.977661 -0.158386 0.138179
vn 0.988310 0.147342 -0.039156
vn 0.974823 -0.216286 -0.054222
vn 0.996053 -0.050027 -0.073323
vn 0.977661 -0.158386 0.138179
vn 0.175852 0.862244 0.474985
vn 0.808254 0.333215 0.485483
vn 0.719170 0.644617 0.259352
vn -0.370730 0.885565 0.279881
vn 0.175852 0.862244 0.474985
vn -0.469837 0.855902 0.216068
vn -0.671065 0.602808 0.431617
vn -0.777611 0.549659 0.305280
vn -0.847308 0.514836 0.130435
vn -0.744044 0.614273 0.262806
vn -0.777611 0.549659 0.305280
vn -0.469837 0.855902 0.216068
vn 0.808254 0.333215 0.485483
vn 0.175852 0.862244 0.474985
vn 0.589854 0.399218 0.701924
vn -0.847308 0.514836 0.130435
vn -0.830900 0.555930 -0.023382
vn -0.862507 0.505113 -0.030706
vn -0.868302 0.496022 0.003836
vn -0.862507 0.505113 -0.030706
vn -0.830900 0.555930 -0.023382
vn -0.818906 0.573644 -0.018022
vn -0.868302 0.496022 0.003836
vn -0.830900 0.555930 -0.023382
vn -0.585577 0.808059 -0.064344
vn -0.742516 0.669196 -0.029109
vn -0.745044 0.666997 -0.004979
vn -0.688477 0.718130 -0.101434
vn -0.730219 0.681329 -0.050699
vn -0.585577 0.808059 -0.064344
vn -0.585577 0.808059 -0.064344
vn -0.784202 0.618413 0.050930
vn -0.725180 0.687948 0.029026
vn -0.492471 0.764225 -0.416452
vn -0.383584 0.902354 -0.196520
vn -0.065702 0.903399 -0.423738
vn 0.151980 0.700882 -0.696897
vn 0.167340 0.814086 -0.556113
vn 0.577762 0.586994 -0.567124
vn 0.495832 0.541753 -0.678715
vn 0.577762 0.586994 -0.567124
vn 0.783898 0.331402 -0.525049
vn 0.495832 0.541753 -0.678715
vn 0.151980 0.700882 -0.696897
vn 0.577762 0.586994 -0.567124
vn 0.497261 0.496253 -0.711663
vn 0.487127 0.499947 -0.716073
vn 0.245187 0.634359 -0.733125
vn 0.725637 0.317147 -0.610629
vn 0.922647 0.055455 -0.381637
vn 0.696184 0.332064 -0.636444
vn 0.151980 0.700882 -0.696897
vn 0.495832 0.541753 -0.678715
vn 0.245187 0.634359 -0.733125
vn 0.786763 0.510108 -0.347554
vn 0.783898 0.331402 -0.525049
vn 0.577762 0.586994 -0.567124
vn 0.577762 0.586994 -0.567124
vn 0.167340 0.814086 -0.556113
vn 0.786763 0.510108 -0.347554
vn -0.652812 0.756132 0.045833
vn -0.579603 0.812912 0.056871
vn -0.585577 0.808059 -0.064344
vn -0.065702 0.903399 -0.423738
vn -0.383584 0.902354 -0.196520
vn 0.353006 0.922739 -0.154724
vn 0.912200 -0.406019 0.055141
vn 0.854473 -0.504307 0.124699
vn 0.897862 -0.438383 0.040795
vn -0.802300 0.164670 0.573758
vn -0.133070 -0.299039 0.944917
vn -0.444852 -0.029265 0.895126
vn -0.646109 -0.145371 0.749273
vn -0.133070 -0.299039 0.944917
vn -0.802300 0.164670 0.573758
vn -0.646109 -0.145371 0.749273
vn -0.802300 0.164670 0.573758
vn -0.849480 0.040599 0.526056
vn 0.039955 -0.505073 0.862151
vn -0.312742 -0.552159 0.772860
vn 0.334575 -0.663672 0.669029
vn 0.830499 -0.459626 0.314666
vn 0.677856 -0.609807 0.410667
vn 0.793561 -0.563309 0.230095
vn 0.838194 -0.538140 0.088528
vn 0.854473 -0.504307 0.124699
vn 0.794084 -0.589034 0.149895
vn -0.274169 -0.668296 0.691529
vn 0.221249 -0.791951 0.569089
vn 0.334575 -0.663672 0.669029
vn -0.800525 -0.321611 0.505694
vn -0.274169 -0.668296 0.691529
vn -0.312742 -0.552159 0.772860
vn -0.816649 -0.117664 0.565013
vn -0.312742 -0.552159 0.772860
vn -0.646109 -0.145371 0.749273
vn -0.274169 -0.668296 0.691529
vn 0.334575 -0.663672 0.669029
vn -0.312742 -0.552159 0.772860
vn 0.794084 -0.589034 0.149895
vn 0.793561 -0.563309 0.230095
vn 0.677856 -0.609807 0.410667
vn -0.964577 0.261171 0.037170
vn -0.957095 0.189994 0.218795
vn -0.929097 0.355122 0.103284
vn -0.428460 0.086660 0.899396
vn -0.729195 0.298041 0.615992
vn -0.500947 0.092696 0.860500
vn -0.269608 -0.052219 0.961553
vn 0.125829 -0.249289 0.960220
vn -0.428460 0.086660 0.899396
vn 0.141914 -0.024727 0.989570
vn 0.250647 -0.128380 0.959528
vn 0.656802 -0.189936 0.729750
vn 0.872247 -0.437113 0.219358
vn 0.921467 -0.348441 0.171722
vn 0.867982 -0.370608 0.330542
vn 0.867982 -0.370608 0.330542
vn 0.928771 -0.275283 0.248200
vn 0.808440 -0.212978 0.548695
vn 0.912200 -0.406019 0.055141
vn 0.926303 -0.375596 -0.029828
vn 0.944966 -0.325124 -0.036516
vn 0.339720 -0.419985 0.841548
vn 0.457312 -0.556932 0.693320
vn 0.653446 -0.541833 0.528607
vn 0.339720 -0.419985 0.841548
vn 0.039955 -0.505073 0.862151
vn 0.457312 -0.556932 0.693320
vn -0.133070 -0.299039 0.944917
vn 0.039955 -0.505073 0.862151
vn 0.125829 -0.249289 0.960220
vn -0.444852 -0.029265 0.895126
vn -0.133070 -0.299039 0.944917
vn 0.125829 -0.249289 0.960220
vn 0.409566 -0.858242 0.309317
vn 0.366401 -0.836009 0.408460
vn -0.041166 -0.911273 0.409741
vn 0.614331 0.542137 -0.573310
vn 0.288273 0.710690 -0.641730
vn 0.014318 0.771435 -0.636147
vn -0.310575 0.713090 -0.628527
vn -0.288840 0.715322 -0.636307
vn -0.549099 0.656145 -0.517653
vn -0.563028 0.785191 -0.257826
vn -0.492471 0.764225 -0.416452
vn -0.695566 0.652745 -0.300186
vn -0.900331 0.403851 -0.162197
vn -0.880750 0.414264 -0.229489
vn -0.932877 0.349953 -0.085289
vn 0.383520 -0.920968 -0.068774
vn -0.843803 -0.491996 -0.214328
vn 0.558471 -0.821013 -0.118522
vn 0.708065 -0.705045 0.039444
vn 0.558471 -0.821013 -0.118522
vn 0.768431 -0.632820 -0.095143
vn 0.433635 -0.753849 -0.493633
vn 0.196716 -0.686736 -0.699783
vn 0.796323 -0.474353 -0.375312
vn 0.196716 -0.686736 -0.699783
vn -0.367434 0.002463 -0.930046
vn 0.268580 -0.451875 -0.850690
vn -0.367434 0.002463 -0.930046
vn 0.420547 -0.028081 -0.906836
vn 0.796323 -0.474353 -0.375312
vn -0.471478 0.395263 -0.788337
vn -0.725386 0.480140 -0.493235
vn -0.321940 0.613325 -0.721240
vn -0.321940 0.613325 -0.721240
vn -0.725386 0.480140 -0.493235
vn -0.410444 0.719332 -0.560443
vn -0.745247 0.537085 -0.395153
vn -0.687294 0.632230 -0.357648
vn -0.549099 0.656145 -0.517653
vn -0.747814 0.583669 -0.316393
vn -0.687294 0.632230 -0.357648
vn -0.745247 0.537085 -0.395153
vn -0.492471 0.764225 -0.416452
vn -0.549099 0.656145 -0.517653
vn -0.687294 0.632230 -0.357648
vn -0.716220 0.626796 -0.306847
vn -0.747814 0.583669 -0.316393
vn -0.829104 0.506815 -0.236064
vn -0.747814 0.583669 -0.316393
vn -0.843947 0.487188 -0.224504
vn -0.829104 0.506815 -0.236064
vn -0.849770 0.469390 -0.239925
vn -0.811695 0.481721 -0.330299
vn -0.880750 0.414264 -0.229489
vn -0.321940 0.613325 -0.721240
vn -0.410444 0.719332 -0.560443
vn -0.062607 0.765223 -0.640714
vn -0.059682 0.442241 -0.894908
vn 0.745004 0.156096 -0.648539
vn 0.789172 -0.166495 -0.591175
vn -0.685162 0.592447 -0.423744
vn -0.677624 0.610248 -0.410394
vn -0.410444 0.719332 -0.560443
vn 0.558471 -0.821013 -0.118522
vn -0.046117 -0.898697 -0.436139
vn 0.433635 -0.753849 -0.493633
vn -0.046117 -0.898697 -0.436139
vn 0.558471 -0.821013 -0.118522
vn -0.843803 -0.491996 -0.214328
vn -0.880750 0.414264 -0.229489
vn -0.913350 0.358081 -0.193828
vn -0.932877 0.349953 -0.085289
vn -0.823541 -0.090357 -0.560015
vn 0.433635 -0.753849 -0.493633
vn -0.877462 -0.241529 -0.414396
vn -0.046117 -0.898697 -0.436139
vn -0.877462 -0.241529 -0.414396
vn 0.433635 -0.753849 -0.493633
vn -0.823541 -0.090357 -0.560015
vn -0.877462 -0.241529 -0.414396
vn -0.889098 0.230229 -0.395601
vn -0.855307 0.440986 -0.271995
vn -0.913350 0.358081 -0.193828
vn -0.880750 0.414264 -0.229489
vn -0.942266 0.235856 -0.237712
vn -0.982275 0.118469 -0.145265
vn -0.959394 0.235891 -0.154654
vn -0.959394 0.235891 -0.154654
vn -0.982275 0.118469 -0.145265
vn -0.990916 0.115998 -0.068040
vn 0.433635 -0.753849 -0.493633
vn -0.367434 0.002463 -0.930046
vn 0.196716 -0.686736 -0.699783
vn 0.805615 -0.588781 0.065740
vn 0.708065 -0.705045 0.039444
vn 0.768431 -0.632820 -0.095143
vn 0.805615 -0.588781 0.065740
vn 0.794084 -0.589034 0.149895
vn 0.674217 -0.725006 0.140703
vn -0.346536 -0.938014 -0.006470
vn -0.890059 -0.455212 0.024035
vn -0.979690 -0.158599 -0.122693
vn -0.135068 -0.952944 0.271395
vn 0.387658 -0.904861 0.175922
vn 0.409566 -0.858242 0.309317
vn 0.387658 -0.904861 0.175922
vn 0.674217 -0.725006 0.140703
vn 0.409566 -0.858242 0.309317
vn 0.383520 -0.920968 -0.068774
vn 0.708065 -0.705045 0.039444
vn -0.466083 -0.884080 -0.034199
vn 0.708065 -0.705045 0.039444
vn 0.383520 -0.920968 -0.068774
vn 0.558471 -0.821013 -0.118522
vn -0.843803 -0.491996 -0.214328
vn 0.383520 -0.920968 -0.068774
vn -0.466083 -0.884080 -0.034199
vn 0.387658 -0.904861 0.175922
vn -0.346536 -0.938014 -0.006470
vn 0.708065 -0.705045 0.039444
vn -0.990916 0.115998 -0.068040
vn -0.995015 -0.072816 -0.068137
vn -0.992783 -0.114815 0.034639
vn -0.995015 -0.072816 -0.068137
vn -0.890059 -0.455212 0.024035
vn -0.890789 -0.438569 0.118965
vn -0.749589 -0.578793 0.321116
vn -0.135068 -0.952944 0.271395
vn -0.041166 -0.911273 0.409741
vn -0.890059 -0.455212 0.024035
vn -0.135068 -0.952944 0.271395
vn -0.749589 -0.578793 0.321116
s off
g WITCH_L_ARM:Mesh
usemtl WITCH_L_ARM:wing_1
f 3/1/1 58/3/2 2/2/3
f 63/7/4 3/4/5 2/5/6
f 63/7/7 2/5/8 4/6/9
f 63/7/10 4/6/11 5/52/12
f 1/102/13 43/43/14 6/8/15
f 23/29/16 62/10/17 7/11/18
f 62/10/19 23/29/20 8/13/21
f 68/109/22 62/112/23 8/12/24
f 60/107/25 66/118/26 8/13/27
f 9/14/28 60/107/29 8/13/30
f 73/18/31 10/17/32 11/19/33
f 13/22/34 58/3/35 12/21/36
f 58/3/37 13/22/38 2/2/39
f 4/23/40 2/2/41 13/22/42
f 4/6/43 26/53/44 39/42/45
f 25/24/46 5/25/47 21/26/48
f 5/25/49 25/24/50 1/102/51
f 43/43/52 1/102/53 25/24/54
f 6/8/55 43/43/56 14/27/57
f 15/28/58 6/8/59 14/27/60
f 23/29/61 15/30/62 14/31/63
f 15/30/64 23/29/65 7/11/66
f 16/15/67 8/13/68 23/29/69
f 9/14/70 8/13/71 16/15/72
f 11/32/73 24/33/74 77/20/75
f 77/20/76 51/91/77 12/21/78
f 13/22/79 12/21/80 17/34/81
f 18/35/82 13/22/83 17/34/84
f 26/53/85 18/39/86 19/37/87
f 20/40/88 19/36/89 38/41/90
f 19/37/91 20/38/92 39/42/93
f 39/42/94 26/53/95 19/37/96
f 29/44/97 44/45/98 22/46/99
f 22/47/100 44/48/101 43/43/102
f 23/29/103 44/45/104 29/44/105
f 16/15/106 23/29/107 29/44/108
f 24/49/109 10/17/110 48/85/111
f 51/91/112 24/33/113 49/50/114
f 77/20/115 24/33/116 51/91/117
f 44/45/118 23/29/119 14/31/120
f 44/48/121 14/27/122 43/43/123
f 26/54/124 4/23/125 13/22/126
f 26/54/127 13/22/128 18/35/129
f 53/95/130 27/55/131 17/34/132
f 17/34/133 27/55/134 28/57/135
f 28/57/136 35/68/137 17/34/138
f 27/56/139 56/97/140 28/58/141
f 54/83/142 34/69/143 56/97/144
f 39/42/145 35/70/146 45/59/147
f 39/42/148 30/60/149 35/70/150
f 32/61/151 30/60/152 39/42/153
f 32/61/154 31/62/155 30/60/156
f 36/73/157 31/63/158 17/34/159
f 32/64/160 40/66/161 31/63/162
f 31/63/163 40/66/164 33/67/165
f 31/63/166 33/67/167 17/34/168
f 28/57/169 37/71/170 35/68/171
f 28/58/172 56/97/173 37/75/174
f 37/75/175 56/97/176 34/69/177
f 34/69/178 54/83/179 45/59/180
f 29/44/181 45/59/182 54/83/183
f 35/70/184 34/69/185 45/59/186
f 36/72/187 35/70/188 30/60/189
f 35/68/190 36/73/191 17/34/192
f 31/63/193 36/73/194 30/74/195
f 34/69/196 35/70/197 37/75/198
f 17/34/199 33/67/200 18/35/201
f 19/36/202 18/35/203 33/67/204
f 38/41/205 19/36/206 33/67/207
f 39/42/208 38/76/209 33/77/210
f 20/38/211 38/76/212 39/42/213
f 39/42/214 33/77/215 40/65/216
f 5/52/217 39/42/218 21/78/219
f 25/51/220 21/78/221 41/79/222
f 42/81/223 41/79/224 29/44/225
f 42/82/226 25/24/227 41/80/228
f 42/82/229 22/47/230 43/43/231
f 42/81/232 29/44/233 22/46/234
f 25/24/235 42/82/236 43/43/237
f 45/59/238 29/44/239 41/79/240
f 41/79/241 21/78/242 45/59/243
f 40/65/244 32/61/245 39/42/246
f 21/78/247 39/42/248 45/59/249
f 54/83/250 57/84/251 16/15/252
f 17/34/253 46/88/254 52/89/255
f 47/90/256 46/88/257 17/34/258
f 47/90/259 17/34/260 51/91/261
f 47/86/262 50/92/263 48/85/264
f 55/99/265 48/85/266 57/84/267
f 16/15/268 57/84/269 10/17/270
f 49/93/271 24/49/272 48/85/273
f 51/91/274 49/50/275 50/94/276
f 51/91/277 50/94/278 47/90/279
f 49/93/280 48/85/281 50/92/282
f 10/17/283 57/84/284 48/85/285
f 12/21/286 51/91/287 17/34/288
f 53/95/289 17/34/290 52/89/291
f 52/96/292 56/97/293 53/98/294
f 27/56/295 53/98/296 56/97/297
f 57/84/298 54/83/299 55/99/300
f 55/99/301 54/83/302 56/97/303
f 54/83/304 16/15/305 29/44/306
f 56/97/307 48/85/308 55/99/309
f 56/97/310 47/86/311 48/85/312
f 46/87/313 47/86/314 56/97/315
f 52/96/316 46/87/317 56/97/318
f 10/17/319 24/49/320 11/19/321
f 15/28/322 7/9/323 6/8/324
f 5/25/325 1/102/326 64/100/327
f 39/42/328 5/52/329 4/6/330
f 58/3/331 1/102/332 12/21/333
f 59/103/334 72/122/335 70/104/336
f 75/16/337 70/105/338 9/14/339
f 9/14/340 61/106/341 60/107/342
f 61/108/343 68/109/344 60/110/345
f 68/109/346 66/117/347 60/110/348
f 68/109/349 67/111/350 62/112/351
f 62/112/352 67/111/353 6/8/354
f 1/102/355 63/113/356 64/100/357
f 65/116/358 63/113/359 1/102/360
f 5/52/361 64/101/362 63/7/363
f 63/7/364 65/114/365 3/4/366
f 65/114/367 58/115/368 3/4/369
f 58/3/370 65/116/371 1/102/372
f 62/112/373 6/8/374 7/9/375
f 68/109/376 8/12/377 66/117/378
f 67/111/379 1/102/380 6/8/381
f 70/105/382 69/120/383 9/14/384
f 69/121/385 70/104/386 72/122/387
f 1/102/388 71/123/389 12/21/390
f 68/109/391 9/119/392 72/122/393
f 69/121/394 72/122/395 9/119/396
f 68/109/397 72/122/398 67/111/399
f 67/111/400 71/123/401 1/102/402
f 67/111/403 72/122/404 71/123/405
f 71/123/406 72/122/407 12/21/408
f 9/119/409 68/109/410 61/108/411
f 16/15/412 75/16/413 9/14/414
f 16/15/415 10/17/416 75/16/417
f 76/124/418 74/125/419 72/122/420
f 73/18/421 74/127/422 10/17/423
f 74/127/424 75/16/425 10/17/426
f 59/128/427 75/16/428 76/129/429
f 75/16/430 59/128/431 70/105/432
f 72/122/433 59/103/434 76/124/435
f 74/127/436 76/129/437 75/16/438
f 12/21/439 72/122/440 77/20/441
f 72/122/442 74/125/443 77/20/444
f 77/20/445 73/126/446 11/32/447
f 74/125/448 73/126/449 77/20/450
